<?xml version="1.0" encoding="UTF-8"?>
<svg xmlns="http://www.w3.org/2000/svg" xmlns:xlink="http://www.w3.org/1999/xlink" viewBox="0 0 433 433">
  <defs>
    <style>
      .cls-1 {
        fill: none;
        stroke: #8c8c8b;
        stroke-width: .64px;
      }

      .cls-1, .cls-2, .cls-3, .cls-4, .cls-5, .cls-6, .cls-7 {
        stroke-miterlimit: 10;
      }

      .cls-8 {
        fill: #cccccb;
        mix-blend-mode: overlay;
      }

      .cls-2 {
        fill: #40403f;
        stroke: #6d6d6d;
      }

      .cls-9 {
        fill: #80bee4;
      }

      .cls-9, .cls-10, .cls-11 {
        mix-blend-mode: soft-light;
      }

      .cls-3 {
        fill: url(#linear-gradient);
      }

      .cls-3, .cls-7 {
        stroke: #848484;
      }

      .cls-12 {
        isolation: isolate;
      }

      .cls-4 {
        fill: #5ea3d7;
      }

      .cls-4, .cls-5, .cls-6 {
        stroke: #40403f;
      }

      .cls-5 {
        fill: #b2d4d8;
      }

      .cls-10, .cls-6 {
        fill: #f15f76;
      }

      .cls-11 {
        fill: #c0e0e2;
      }

      .cls-7 {
        fill: #71a5a8;
      }
    </style>
    <linearGradient id="linear-gradient" x1="211.62" y1="392.7" x2="211.62" y2="364.02" gradientUnits="userSpaceOnUse">
      <stop offset="0" stop-color="#d28a17"/>
      <stop offset="1" stop-color="#683514"/>
    </linearGradient>
  </defs>
  <g class="cls-12">
    <g id="Layer_1">
      <circle class="cls-7" cx="216.5" cy="216.5" r="216"/>
      <path class="cls-6" d="M166,108.85v249.19c0,3.82-3.1,6.91-6.92,6.91h-66.51c-3.82,0-6.91-3.09-6.91-6.91V108.85c0-3.82,3.09-6.92,6.91-6.92h66.51c3.82,0,6.92,3.1,6.92,6.92Z"/>
      <rect class="cls-2" x="96.21" y="101.93" width="2.21" height="263.02"/>
      <rect class="cls-2" x="153.23" y="101.93" width="2.21" height="263.02" transform="translate(308.68 466.89) rotate(-180)"/>
      <path class="cls-5" d="M351.64,359.64l-33.15,2.61-33.15,2.62c-3.81.3-7.16-2.84-7.49-7.01l-21.44-271.93c-.33-4.16,2.49-7.79,6.29-8.09l33.16-2.61,33.15-2.62c3.81-.3,7.16,2.84,7.49,7.01l21.44,271.93c.33,4.17-2.49,7.79-6.3,8.09Z"/>
      <rect class="cls-2" x="277.65" y="77.02" width="2.21" height="287.91" transform="translate(-16.51 22.6) rotate(-4.51)"/>
      <rect class="cls-2" x="334.49" y="72.54" width="2.21" height="287.91" transform="translate(687.18 405.95) rotate(175.49)"/>
      <path class="cls-4" d="M251.78,30.66v325.27c0,4.98-3.09,9.02-6.91,9.02h-66.51c-3.82,0-6.92-4.04-6.92-9.02V30.66c0-4.98,3.1-9.03,6.92-9.03h66.51c3.82,0,6.91,4.05,6.91,9.03Z"/>
      <rect class="cls-2" x="182" y="21.63" width="2.21" height="343.32"/>
      <rect class="cls-2" x="239.02" y="21.63" width="2.21" height="343.32" transform="translate(480.26 386.59) rotate(-180)"/>
      <rect class="cls-3" x="20.47" y="364.95" width="382.3" height="24.85" rx="6.81" ry="6.81"/>
      <rect class="cls-10" x="103.37" y="104.93" width="44.94" height="257.02" rx="6.11" ry="6.11"/>
      <rect class="cls-9" x="189.15" y="25.15" width="44.94" height="336.29" rx="6.98" ry="6.98"/>
      <rect class="cls-11" x="284.72" y="77.8" width="44.94" height="281.87" rx="6.4" ry="6.4" transform="translate(-18.51 28.65) rotate(-5.18)"/>
      <path class="cls-1" d="M113.67,343.25l7.92-13.85c6.22-10.89,5.98-23.66-.66-34.36l-.91-1.46c-6.96-11.23-8.27-24.38-3.65-36.45l1.57-4.1c4.08-10.65,3.87-22.15-.6-32.68l-2.79-6.57c-5.27-12.41-5.46-25.98-.54-38.5l5.11-13.02c4.26-10.83,3.55-22.64-1.98-33.05l-7.41-13.95"/>
      <path class="cls-1" d="M131.37,343.25l7.92-13.85c6.22-10.89,5.98-23.66-.66-34.36l-.91-1.46c-6.96-11.23-8.27-24.38-3.65-36.45l1.57-4.1c4.08-10.65,3.87-22.15-.6-32.68l-2.79-6.57c-5.27-12.41-5.46-25.98-.54-38.5l5.11-13.02c4.26-10.83,3.55-22.64-1.98-33.05l-7.41-13.95"/>
      <path class="cls-1" d="M303.62,327.31l6.63-14.51c5.21-11.41,3.82-24.1-3.76-34.16l-1.03-1.37c-7.94-10.55-10.44-23.53-6.93-35.97l1.19-4.22c3.1-10.97,1.85-22.41-3.55-32.5l-3.37-6.29c-6.37-11.89-7.78-25.38-4.02-38.29l3.92-13.43c3.26-11.17,1.49-22.87-4.96-32.73l-8.64-13.22"/>
      <path class="cls-1" d="M321.25,325.71l6.63-14.51c5.21-11.41,3.82-24.1-3.76-34.16l-1.03-1.37c-7.94-10.55-10.44-23.53-6.93-35.97l1.19-4.22c3.1-10.97,1.85-22.41-3.55-32.5l-3.37-6.29c-6.37-11.89-7.78-25.38-4.02-38.29l3.92-13.43c3.26-11.17,1.49-22.87-4.96-32.73l-8.64-13.22"/>
      <path class="cls-1" d="M198.52,351.2l7.92-19.18c6.22-15.08,5.98-32.77-.66-47.6l-.91-2.02c-6.96-15.55-8.27-33.77-3.65-50.49l1.57-5.68c4.08-14.75,3.87-30.68-.6-45.27l-2.79-9.1c-5.27-17.19-5.46-35.99-.54-53.33l5.11-18.04c4.26-15.01,3.55-31.36-1.98-45.77l-7.41-19.32"/>
      <path class="cls-1" d="M216.22,351.2l7.92-19.18c6.22-15.08,5.98-32.77-.66-47.6l-.91-2.02c-6.96-15.55-8.27-33.77-3.65-50.49l1.57-5.68c4.08-14.75,3.87-30.68-.6-45.27l-2.79-9.1c-5.27-17.19-5.46-35.99-.54-53.33l5.11-18.04c4.26-15.01,3.55-31.36-1.98-45.77l-7.41-19.32"/>
      <g>
        <circle class="cls-8" cx="117.23" cy="333.5" r="9.19"/>
        <circle class="cls-8" cx="132.01" cy="319.54" r="6.18"/>
      </g>
      <g>
        <circle class="cls-8" cx="205.31" cy="110.85" r="9.19"/>
        <circle class="cls-8" cx="220.09" cy="96.9" r="6.18"/>
      </g>
      <g>
        <circle class="cls-8" cx="305.05" cy="253.69" r="9.19"/>
        <circle class="cls-8" cx="319.83" cy="239.73" r="6.18"/>
      </g>
    </g>
  </g>
</svg>